<?xml version="1.0"?>
<svg width="600" height="512" xmlns="http://www.w3.org/2000/svg" xmlns:svg="http://www.w3.org/2000/svg">
 <g class="layer">
  <title>Layer 1</title>
  <path d="m223.588,20.262c-94.51,0.16 -180.05,33.605 -205.775,82.295c63.673,11.945 127.836,21.112 192.79,25.808c-35.365,-20.726 -55.412,-44.447 -57.513,-70.908c9.606,23.1 38.422,48.424 67.744,60.867c-4.996,-1.485 32.824,-53.85 50.416,-64.902c-29.405,39.648 -37.708,67.187 -36.1,67.928c22.607,-1.23 127.53,-22.233 127.53,-22.233c-7.847,7.87 -76.286,35.126 -119.205,35.522c22.56,16.765 45.517,29.576 70.28,40.155c-28.376,-5.275 -66.343,-11.28 -89.616,-34.283c-18.81,14.785 -68.393,43.842 -93.882,53.728c22.513,-12.795 64.63,-48.47 84.418,-63.535c-0.27,-0.15 -0.53,-0.305 -0.8,-0.457c-64.003,14.72 -129.707,23.77 -196.356,29.67c27.37,52.198 125.31,84.884 229.158,76.478c103.846,-8.405 181.566,-55.31 181.843,-109.748c0.28,-54.436 -76.97,-99.61 -180.743,-105.7c-8.107,-0.474 -16.18,-0.7 -24.19,-0.686l0.001,0.001z
  
  m-39,230 c-2.96,-0.01 -5.92,0.02 -8.884,0.09c-94.81,2.256 -161.748,45.352 -156.707,100.894c5.04,55.542 80.51,106.446 176.683,119.17c12.704,-35.26 13.5,-72.006 15.984,-108.543c-32.932,17.818 -75.572,23.768 -115.857,32.597c31.362,-11.65 62.422,-23.65 91.064,-38.473c-34.348,-9.89 -67.103,-26.543 -100.377,-41c35.958,9.036 71.627,19.507 108.104,25.947c-5.18,-17.742 -7.297,-36.632 -10.882,-54.973c9.37,18.825 16.314,38.62 29.18,56.05c41.175,-8.686 77.906,-22.37 116.166,-34.332c-29.87,14.993 -59.066,31.237 -90.38,43.547c30.463,8.445 62.82,14.284 94.92,20.477c-41.068,-0.64 -82.065,-1.71 -121.88,-9.868l-0.014,0.008c24.498,35.384 51.502,70.77 85.287,106.154c86.556,-17.07 128.27,-70.762 97.656,-125.695c-29.656,-53.218 -118.352,-91.745 -210.064,-92.05l0.001,0z" fill="green" id="svg_1"/>
 </g>

</svg>