<?xml version="1.0"?>
<svg width="650" height="500" xmlns="http://www.w3.org/2000/svg" xmlns:svg="http://www.w3.org/2000/svg" version="1.1">
 <metadata>image/svg+xmlOpenclipartLily Pads2013-08-29T00:51:53Three lily pads floating.https://openclipart.org/detail/182536/lily-pads-by-teeks99-182536teeks99lily lilly pad frog</metadata>
 <g class="layer">
  <title>Layer 1</title>
  <g id="layer1" stroke="darkgreen">
   <path d="m779.84,818.01a163.64,39.396 0 1 1 -38.09,-25.27l-125.56,25.265l163.65,0.005z" fill="green" id="path3082" stroke-width="10" transform="translate(-225.26 -408.1)"/>
   <path d="m568.67,763.67a155.56,35.355 0 1 1 31.851,6.6625l88.399,-29.092l-120.25,22.4295z" fill="palegreen" id="path4162" stroke-width="10" transform="translate(-225.26 -408.1)"/>
   <path d="m277.83,768.64a161.62,45.457 0 1 1 28.825,12.952l120.64,-30.251l-149.465,17.299z" fill="lawngreen" id="path4158" stroke-width="10" transform="translate(-225.26 -408.1)"/>
   <path d="m200.01,339.19s10.102,-18.183 11.112,-29.294" fill="none" id="path4932" stroke-width="7"/>
   <path d="m202.54,343.74s93.944,-4.0406 115.16,5.0508" fill="none" id="path4932-2" stroke-width="7"/>
   <path d="m457.09,335.66s23.234,-14.142 24.244,-25.254" fill="none" id="path4932-25" stroke-width="7"/>
   <path d="m406.08,408.39s-76.772,7.0711 -121.22,-9.0914" fill="none" id="path4932-25-5" stroke-width="7"/>
  </g>
 </g>
</svg>