<?xml version="1.0" encoding="UTF-8" standalone="no"?>
<svg
    xmlns:inkscape="http://www.inkscape.org/namespaces/inkscape"
    xmlns:rdf="http://www.w3.org/1999/02/22-rdf-syntax-ns#"
    xmlns="http://www.w3.org/2000/svg"
    xmlns:sodipodi="http://sodipodi.sourceforge.net/DTD/sodipodi-0.dtd"
    xmlns:ns1="http://sozi.baierouge.fr"
    xmlns:cc="http://creativecommons.org/ns#"
    xmlns:xlink="http://www.w3.org/1999/xlink"
    xmlns:dc="http://purl.org/dc/elements/1.1/"
    id="svg7762"
    sodipodi:docname="Lily pad.svg"
    inkscape:export-filename="G:\Sparkle Touch\Pictures\Lily pad.png"
    viewBox="0 0 525.81107 437.46704"
    inkscape:export-xdpi="43.82"
    version="1.1"
    inkscape:export-ydpi="43.82"
    inkscape:version="0.48.4 r9939"
  >
  <sodipodi:namedview
      id="namedview3710"
      fit-margin-left="0"
      inkscape:zoom="1.2109375"
      borderopacity="1"
      inkscape:current-layer="layer2"
      inkscape:cx="107.34277"
      inkscape:cy="185.58732"
      inkscape:window-maximized="1"
      showgrid="false"
      fit-margin-right="0"
      bordercolor="#666666"
      inkscape:window-x="-4"
      guidetolerance="10"
      objecttolerance="10"
      inkscape:window-y="-4"
      fit-margin-bottom="0"
      inkscape:window-width="1440"
      inkscape:pageopacity="0"
      inkscape:pageshadow="2"
      pagecolor="#ffffff"
      gridtolerance="10"
      inkscape:window-height="844"
      fit-margin-top="0"
  />
  <defs
      id="defs7764"
    >
    <filter
        id="filter6410"
        inkscape:menu="Bumps"
        inkscape:menu-tooltip="Same as Bubbly Bumps but with a diffuse light instead of a specular one"
        inkscape:label="Bubbly Bumps, matte"
        color-interpolation-filters="sRGB"
      >
      <feGaussianBlur
          id="feGaussianBlur6412"
          in="SourceGraphic"
          stdDeviation="0.5"
          result="result0"
      />
      <feTurbulence
          id="feTurbulence6414"
          baseFrequency="0.2"
          seed="300"
          result="result1"
          numOctaves="10"
          type="fractalNoise"
      />
      <feGaussianBlur
          id="feGaussianBlur6416"
          stdDeviation="0.5"
          result="result91"
      />
      <feDisplacementMap
          id="feDisplacementMap6418"
          scale="5"
          yChannelSelector="A"
          in2="result91"
          result="result6"
          xChannelSelector="R"
          in="result0"
      />
      <feComposite
          id="feComposite6420"
          operator="in"
          in="result6"
          in2="result1"
          result="result2"
      />
      <feComposite
          id="feComposite6422"
          k4="0"
          in2="result2"
          k3="3"
          k2="0"
          k1="0"
          result="result92"
          in="result0"
          operator="arithmetic"
      />
      <feBlend
          id="feBlend6424"
          mode="multiply"
          in2="result2"
          result="fbSourceGraphic"
      />
      <feColorMatrix
          id="feColorMatrix6426"
          result="fbSourceGraphicAlpha"
          values="1 0 0 -1 0 1 0 1 -1 0 1 0 0 -1 0 -1.8 -0.5 0 5.7 -3.5 "
          in="fbSourceGraphic"
      />
      <feGaussianBlur
          id="feGaussianBlur6428"
          result="result0"
          stdDeviation="0.5"
          in="fbSourceGraphicAlpha"
      />
      <feDiffuseLighting
          id="feDiffuseLighting6430"
          surfaceScale="50"
          diffuseConstant="0.60000002"
          result="result5"
        >
        <feDistantLight
            id="feDistantLight6432"
            elevation="10"
            azimuth="225"
        />
      </feDiffuseLighting
      >
      <feComposite
          id="feComposite6434"
          result="result2"
          operator="in"
          in2="fbSourceGraphicAlpha"
          in="result5"
      />
      <feComposite
          id="feComposite6436"
          k4="0"
          in2="result2"
          k3="0.7"
          k2="1"
          k1="0"
          result="result4"
          in="fbSourceGraphic"
          operator="arithmetic"
      />
    </filter
    >
  </defs
  >
  <g
      id="layer2"
      inkscape:label="Lily pad"
      inkscape:groupmode="layer"
    >
    <g
        id="g4805"
      >
      <path
          id="path5274"
          sodipodi:rx="207.27742"
          sodipodi:ry="191.5871"
          style="stroke-linejoin:round;color:#000000;filter:url(#filter6410);stroke:green;stroke-width:20.262;fill:#00621b"
          sodipodi:type="arc"
          d="m448.41-61.987a207.28 191.59 0 1 1 -4.4677 -39.564l-202.81 39.564z"
          transform="matrix(1.0333 0 0 .94291 13.737 277.18)"
          sodipodi:cy="-61.987099"
          sodipodi:cx="241.13548"
          sodipodi:end="6.0751845"
          sodipodi:start="0"
      />
      <g
          id="g4485"
          style="stroke-width:11.724;fill:#ffffff"
          transform="matrix(-.079721 -.65925 -1.9952 -.12908 449.71 175.32)"
        >
        <g
            id="g4487"
            style="stroke-width:11.724"
            transform="translate(53.677,-18.379)"
          >
          <path
              id="path4489"
              style="opacity:.1;stroke-width:11.724"
              inkscape:connector-curvature="0"
              d="m-140.97 130.12c-2.5103 2.2259-1.2305 7.3903-2.375 10.656-3.0561 20.468-10.74 39.84-18.781 58.875 12.291-10.511 27.434-20.839 31.094-37.594 2.1948-10.207 2.3639-23.538-7.1875-30.125-0.84944-0.52186-1.6485-1.8414-2.75-1.8125z"
          />
          <path
              id="path4491"
              style="opacity:.1;stroke-width:11.724"
              inkscape:connector-curvature="0"
              d="m-140.56 129c-4.5778 0.19748-2.254 7.1136-3.6875 10.062-2.843 22.148-11.981 43.325-20.156 63.5 9.9496-7.4921 19.802-15.426 27.625-25.188 7.7666-11.279 11.022-27.049 5.125-39.812-2.2563-3.308-5.3863-6.7956-8.9062-8.5625z"
          />
          <path
              id="path4493"
              style="opacity:.1;stroke-width:11.724"
              inkscape:connector-curvature="0"
              d="m-141.06 127.91c-5.2633 0.27828-2.7797 7.7103-4.2812 11-2.8048 22.679-12.515 43.691-20.5 64.812 4.4898 0.1237 7.7731-5.4263 11.469-7.5938 11.087-9.1503 22.776-19.489 25.719-34.312 2.1054-10.848 1.9274-24.405-8.0312-31.531-1.2322-0.8127-2.6682-2.6647-4.375-2.375z"
          />
          <path
              id="path4495"
              style="opacity:.1;stroke-width:11.724"
              inkscape:connector-curvature="0"
              d="m-141.25 126.81c-6.4731 0.49331-3.6705 9.3681-5.375 13.469-3.1282 22.032-12.404 42.522-20.344 63.094-0.116 3.2356 4.9197 0.97142 5.9375-0.34375 12.335-10.598 27.41-20.621 32.281-36.875 2.9473-10.168 4.0512-22.802-2.4375-31.812-2.7643-2.6639-5.8272-7.5823-10.062-7.5312z"
          />
          <path
              id="path4497"
              style="opacity:.1;stroke-width:11.724"
              inkscape:connector-curvature="0"
              d="m-141.44 125.72c-2.8579 0.0641-5.0723 2.169-5 5.0625-1.9146 19.068-7.6313 37.517-14.831 55.235-1.9836 6.0398-5.7219 11.6-6.8255 17.89 0.2879 3.3232 5.1658 2.3967 6.8438 0.59375 8.9754-7.0213 17.86-14.432 25.492-22.911 8.4266-10.631 12.096-24.721 9.6147-38.248-0.98886-7.5131-6.7293-13.782-13.107-17.465-0.69954-0.21019-1.4614-0.29342-2.1875-0.15625z"
          />
          <path
              id="path4499"
              style="opacity:.1;stroke-width:11.724"
              inkscape:connector-curvature="0"
              d="m-141.59 124.59c-3.0485 0.24727-5.7857 2.2446-5.8375 5.5115-1.5329 11.7-3.4873 23.439-7.35 34.707-3.9118 12.807-9.4924 24.961-14.197 37.414-1.2094 2.7938 1.3117 5.5018 4.166 5.0235 5.3866-1.2171 9.1159-6.1154 13.431-9.3239 9.1014-7.9063 18.98-15.802 23.364-27.399 4.3035-10.2 5.0764-22.139 1.4859-32.683-2.5342-5.5182-7.1735-10.325-12.594-13.094-0.80032-0.21197-1.6343-0.30137-2.4688-0.15625z"
          />
          <path
              id="path4501"
              style="opacity:.1;stroke-width:11.724"
              inkscape:connector-curvature="0"
              d="m-141.72 123.5c-5.679 0.0195-7.3509 5.7979-7.4568 10.458-2.2861 23.94-12.324 46.096-20.949 68.292-1.8673 5.5092 5.8766 7.9663 9.375 4.5938 10.396-8.1968 21.372-16.488 29.156-27.25 8.3654-12.575 11.381-29.735 5.2188-44-3.3452-5.0538-7.7812-10.894-14.031-12.156-0.43808 0.009-0.87915-0.0317-1.3125 0.0625z"
          />
          <path
              id="path4503"
              style="opacity:.1;stroke-width:11.724"
              inkscape:connector-curvature="0"
              d="m-141.28 122.34c-5.7382-0.12-9.0227 5.1934-8.8438 10.469-2.2278 24.251-12.307 46.682-21.094 69.156-2.0194 5.982 5.8866 9.6631 10.344 6.2812 10.612-7.9369 21.159-16.462 29.43-26.872 9.2236-13.174 12.598-31.354 6.0385-46.346-3.5728-5.2718-8.9154-12.527-15.875-12.688z"
          />
          <path
              id="path4505"
              style="opacity:.1;stroke-width:11.724"
              inkscape:connector-curvature="0"
              d="m-141.97 121.28c-5.9785 0.21295-9.3615 5.8394-9.25 11.375-2.2312 24.267-12.363 46.676-21.094 69.094-2.1149 6.3729 5.8054 11.086 11.094 7.9062 10.566-6.9134 19.863-15.784 28.625-24.875 11.01-13.719 15.368-33.779 8.1875-50.25-3.7286-5.6962-8.9109-12.253-16-13.312-0.52115 0.0135-1.0464-0.0399-1.5625 0.0625z"
          />
          <path
              id="path4507"
              style="opacity:.1;stroke-width:11.724"
              inkscape:connector-curvature="0"
              d="m-141.53 120.12c-5.9914 0.0946-10.565 5.095-10.625 11-2.1099 24.31-11.951 47.071-21 69.469-2.8267 6.5498 4.2561 13.056 10.656 10.75 10.268-4.9241 17.931-13.99 26.531-21.312 14.398-13.825 20.532-36.697 12.844-55.406-3.8023-6.2499-10.352-14.629-18.406-14.5z"
          />
        </g
        >
        <path
            id="path4509"
            style="stroke-linejoin:round;stroke-opacity:.37705;fill-opacity:.93989;stroke:#fffffe;stroke-linecap:round;stroke-width:11.724"
            inkscape:connector-curvature="0"
            d="m-89.636 162.04c5.5569-5.6533 6.914-7.3354 8.5556-10.604 2.6393-5.2557 3.6421-9.9642 3.3844-15.892-0.23427-5.3882-1.1771-7.9866-4.0465-11.152-2.4788-2.7346-3.3559-3.1515-5.1083-2.428-1.5943 0.65816-1.6391 0.79978-2.3624 7.4578-0.97519 8.9773-4.0188 20.078-9.5874 34.968-1.1534 3.0841-0.79182 4.3501 1.2459 4.3619 1.0548 0.006 2.6179-1.3187 7.9187-6.7115z"
        />
      </g
      >
      <g
          id="g4511"
          style="stroke-width:11.724;fill:#ffffff"
          transform="matrix(.44468 -.49766 -1.188 -1.627 413.98 337.09)"
        >
        <g
            id="g4513"
            style="stroke-width:11.724"
            transform="translate(53.677,-18.379)"
          >
          <path
              id="path4515"
              style="opacity:.1;stroke-width:11.724"
              inkscape:connector-curvature="0"
              d="m-140.97 130.12c-2.5103 2.2259-1.2305 7.3903-2.375 10.656-3.0561 20.468-10.74 39.84-18.781 58.875 12.291-10.511 27.434-20.839 31.094-37.594 2.1948-10.207 2.3639-23.538-7.1875-30.125-0.84944-0.52186-1.6485-1.8414-2.75-1.8125z"
          />
          <path
              id="path4517"
              style="opacity:.1;stroke-width:11.724"
              inkscape:connector-curvature="0"
              d="m-140.56 129c-4.5778 0.19748-2.254 7.1136-3.6875 10.062-2.843 22.148-11.981 43.325-20.156 63.5 9.9496-7.4921 19.802-15.426 27.625-25.188 7.7666-11.279 11.022-27.049 5.125-39.812-2.2563-3.308-5.3863-6.7956-8.9062-8.5625z"
          />
          <path
              id="path4519"
              style="opacity:.1;stroke-width:11.724"
              inkscape:connector-curvature="0"
              d="m-141.06 127.91c-5.2633 0.27828-2.7797 7.7103-4.2812 11-2.8048 22.679-12.515 43.691-20.5 64.812 4.4898 0.1237 7.7731-5.4263 11.469-7.5938 11.087-9.1503 22.776-19.489 25.719-34.312 2.1054-10.848 1.9274-24.405-8.0312-31.531-1.2322-0.8127-2.6682-2.6647-4.375-2.375z"
          />
          <path
              id="path4521"
              style="opacity:.1;stroke-width:11.724"
              inkscape:connector-curvature="0"
              d="m-141.25 126.81c-6.4731 0.49331-3.6705 9.3681-5.375 13.469-3.1282 22.032-12.404 42.522-20.344 63.094-0.116 3.2356 4.9197 0.97142 5.9375-0.34375 12.335-10.598 27.41-20.621 32.281-36.875 2.9473-10.168 4.0512-22.802-2.4375-31.812-2.7643-2.6639-5.8272-7.5823-10.062-7.5312z"
          />
          <path
              id="path4523"
              style="opacity:.1;stroke-width:11.724"
              inkscape:connector-curvature="0"
              d="m-141.44 125.72c-2.8579 0.0641-5.0723 2.169-5 5.0625-1.9146 19.068-7.6313 37.517-14.831 55.235-1.9836 6.0398-5.7219 11.6-6.8255 17.89 0.2879 3.3232 5.1658 2.3967 6.8438 0.59375 8.9754-7.0213 17.86-14.432 25.492-22.911 8.4266-10.631 12.096-24.721 9.6147-38.248-0.98886-7.5131-6.7293-13.782-13.107-17.465-0.69954-0.21019-1.4614-0.29342-2.1875-0.15625z"
          />
          <path
              id="path4525"
              style="opacity:.1;stroke-width:11.724"
              inkscape:connector-curvature="0"
              d="m-141.59 124.59c-3.0485 0.24727-5.7857 2.2446-5.8375 5.5115-1.5329 11.7-3.4873 23.439-7.35 34.707-3.9118 12.807-9.4924 24.961-14.197 37.414-1.2094 2.7938 1.3117 5.5018 4.166 5.0235 5.3866-1.2171 9.1159-6.1154 13.431-9.3239 9.1014-7.9063 18.98-15.802 23.364-27.399 4.3035-10.2 5.0764-22.139 1.4859-32.683-2.5342-5.5182-7.1735-10.325-12.594-13.094-0.80032-0.21197-1.6343-0.30137-2.4688-0.15625z"
          />
          <path
              id="path4527"
              style="opacity:.1;stroke-width:11.724"
              inkscape:connector-curvature="0"
              d="m-141.72 123.5c-5.679 0.0195-7.3509 5.7979-7.4568 10.458-2.2861 23.94-12.324 46.096-20.949 68.292-1.8673 5.5092 5.8766 7.9663 9.375 4.5938 10.396-8.1968 21.372-16.488 29.156-27.25 8.3654-12.575 11.381-29.735 5.2188-44-3.3452-5.0538-7.7812-10.894-14.031-12.156-0.43808 0.009-0.87915-0.0317-1.3125 0.0625z"
          />
          <path
              id="path4529"
              style="opacity:.1;stroke-width:11.724"
              inkscape:connector-curvature="0"
              d="m-141.28 122.34c-5.7382-0.12-9.0227 5.1934-8.8438 10.469-2.2278 24.251-12.307 46.682-21.094 69.156-2.0194 5.982 5.8866 9.6631 10.344 6.2812 10.612-7.9369 21.159-16.462 29.43-26.872 9.2236-13.174 12.598-31.354 6.0385-46.346-3.5728-5.2718-8.9154-12.527-15.875-12.688z"
          />
          <path
              id="path4531"
              style="opacity:.1;stroke-width:11.724"
              inkscape:connector-curvature="0"
              d="m-141.97 121.28c-5.9785 0.21295-9.3615 5.8394-9.25 11.375-2.2312 24.267-12.363 46.676-21.094 69.094-2.1149 6.3729 5.8054 11.086 11.094 7.9062 10.566-6.9134 19.863-15.784 28.625-24.875 11.01-13.719 15.368-33.779 8.1875-50.25-3.7286-5.6962-8.9109-12.253-16-13.312-0.52115 0.0135-1.0464-0.0399-1.5625 0.0625z"
          />
          <path
              id="path4533"
              style="opacity:.1;stroke-width:11.724"
              inkscape:connector-curvature="0"
              d="m-141.53 120.12c-5.9914 0.0946-10.565 5.095-10.625 11-2.1099 24.31-11.951 47.071-21 69.469-2.8267 6.5498 4.2561 13.056 10.656 10.75 10.268-4.9241 17.931-13.99 26.531-21.312 14.398-13.825 20.532-36.697 12.844-55.406-3.8023-6.2499-10.352-14.629-18.406-14.5z"
          />
        </g
        >
        <path
            id="path4535"
            style="stroke-linejoin:round;stroke-opacity:.37705;fill-opacity:.93989;stroke:#fffffe;stroke-linecap:round;stroke-width:11.724"
            inkscape:connector-curvature="0"
            d="m-89.636 162.04c5.5569-5.6533 6.914-7.3354 8.5556-10.604 2.6393-5.2557 3.6421-9.9642 3.3844-15.892-0.23427-5.3882-1.1771-7.9866-4.0465-11.152-2.4788-2.7346-3.3559-3.1515-5.1083-2.428-1.5943 0.65816-1.6391 0.79978-2.3624 7.4578-0.97519 8.9773-4.0188 20.078-9.5874 34.968-1.1534 3.0841-0.79182 4.3501 1.2459 4.3619 1.0548 0.006 2.6179-1.3187 7.9187-6.7115z"
        />
      </g
      >
      <g
          id="g4567"
          style="stroke-width:11.724;fill:#ffffff"
          transform="matrix(-.44896 -.48928 1.1995 -1.5996 94.32 329.05)"
        >
        <g
            id="g4569"
            style="stroke-width:11.724"
            transform="translate(53.677,-18.379)"
          >
          <path
              id="path4571"
              style="opacity:.1;stroke-width:11.724"
              inkscape:connector-curvature="0"
              d="m-140.97 130.12c-2.5103 2.2259-1.2305 7.3903-2.375 10.656-3.0561 20.468-10.74 39.84-18.781 58.875 12.291-10.511 27.434-20.839 31.094-37.594 2.1948-10.207 2.3639-23.538-7.1875-30.125-0.84944-0.52186-1.6485-1.8414-2.75-1.8125z"
          />
          <path
              id="path4573"
              style="opacity:.1;stroke-width:11.724"
              inkscape:connector-curvature="0"
              d="m-140.56 129c-4.5778 0.19748-2.254 7.1136-3.6875 10.062-2.843 22.148-11.981 43.325-20.156 63.5 9.9496-7.4921 19.802-15.426 27.625-25.188 7.7666-11.279 11.022-27.049 5.125-39.812-2.2563-3.308-5.3863-6.7956-8.9062-8.5625z"
          />
          <path
              id="path4575"
              style="opacity:.1;stroke-width:11.724"
              inkscape:connector-curvature="0"
              d="m-141.06 127.91c-5.2633 0.27828-2.7797 7.7103-4.2812 11-2.8048 22.679-12.515 43.691-20.5 64.812 4.4898 0.1237 7.7731-5.4263 11.469-7.5938 11.087-9.1503 22.776-19.489 25.719-34.312 2.1054-10.848 1.9274-24.405-8.0312-31.531-1.2322-0.8127-2.6682-2.6647-4.375-2.375z"
          />
          <path
              id="path4577"
              style="opacity:.1;stroke-width:11.724"
              inkscape:connector-curvature="0"
              d="m-141.25 126.81c-6.4731 0.49331-3.6705 9.3681-5.375 13.469-3.1282 22.032-12.404 42.522-20.344 63.094-0.116 3.2356 4.9197 0.97142 5.9375-0.34375 12.335-10.598 27.41-20.621 32.281-36.875 2.9473-10.168 4.0512-22.802-2.4375-31.812-2.7643-2.6639-5.8272-7.5823-10.062-7.5312z"
          />
          <path
              id="path4579"
              style="opacity:.1;stroke-width:11.724"
              inkscape:connector-curvature="0"
              d="m-141.44 125.72c-2.8579 0.0641-5.0723 2.169-5 5.0625-1.9146 19.068-7.6313 37.517-14.831 55.235-1.9836 6.0398-5.7219 11.6-6.8255 17.89 0.2879 3.3232 5.1658 2.3967 6.8438 0.59375 8.9754-7.0213 17.86-14.432 25.492-22.911 8.4266-10.631 12.096-24.721 9.6147-38.248-0.98886-7.5131-6.7293-13.782-13.107-17.465-0.69954-0.21019-1.4614-0.29342-2.1875-0.15625z"
          />
          <path
              id="path4581"
              style="opacity:.1;stroke-width:11.724"
              inkscape:connector-curvature="0"
              d="m-141.59 124.59c-3.0485 0.24727-5.7857 2.2446-5.8375 5.5115-1.5329 11.7-3.4873 23.439-7.35 34.707-3.9118 12.807-9.4924 24.961-14.197 37.414-1.2094 2.7938 1.3117 5.5018 4.166 5.0235 5.3866-1.2171 9.1159-6.1154 13.431-9.3239 9.1014-7.9063 18.98-15.802 23.364-27.399 4.3035-10.2 5.0764-22.139 1.4859-32.683-2.5342-5.5182-7.1735-10.325-12.594-13.094-0.80032-0.21197-1.6343-0.30137-2.4688-0.15625z"
          />
          <path
              id="path4583"
              style="opacity:.1;stroke-width:11.724"
              inkscape:connector-curvature="0"
              d="m-141.72 123.5c-5.679 0.0195-7.3509 5.7979-7.4568 10.458-2.2861 23.94-12.324 46.096-20.949 68.292-1.8673 5.5092 5.8766 7.9663 9.375 4.5938 10.396-8.1968 21.372-16.488 29.156-27.25 8.3654-12.575 11.381-29.735 5.2188-44-3.3452-5.0538-7.7812-10.894-14.031-12.156-0.43808 0.009-0.87915-0.0317-1.3125 0.0625z"
          />
          <path
              id="path4585"
              style="opacity:.1;stroke-width:11.724"
              inkscape:connector-curvature="0"
              d="m-141.28 122.34c-5.7382-0.12-9.0227 5.1934-8.8438 10.469-2.2278 24.251-12.307 46.682-21.094 69.156-2.0194 5.982 5.8866 9.6631 10.344 6.2812 10.612-7.9369 21.159-16.462 29.43-26.872 9.2236-13.174 12.598-31.354 6.0385-46.346-3.5728-5.2718-8.9154-12.527-15.875-12.688z"
          />
          <path
              id="path4587"
              style="opacity:.1;stroke-width:11.724"
              inkscape:connector-curvature="0"
              d="m-141.97 121.28c-5.9785 0.21295-9.3615 5.8394-9.25 11.375-2.2312 24.267-12.363 46.676-21.094 69.094-2.1149 6.3729 5.8054 11.086 11.094 7.9062 10.566-6.9134 19.863-15.784 28.625-24.875 11.01-13.719 15.368-33.779 8.1875-50.25-3.7286-5.6962-8.9109-12.253-16-13.312-0.52115 0.0135-1.0464-0.0399-1.5625 0.0625z"
          />
          <path
              id="path4589"
              style="opacity:.1;stroke-width:11.724"
              inkscape:connector-curvature="0"
              d="m-141.53 120.12c-5.9914 0.0946-10.565 5.095-10.625 11-2.1099 24.31-11.951 47.071-21 69.469-2.8267 6.5498 4.2561 13.056 10.656 10.75 10.268-4.9241 17.931-13.99 26.531-21.312 14.398-13.825 20.532-36.697 12.844-55.406-3.8023-6.2499-10.352-14.629-18.406-14.5z"
          />
        </g
        >
        <path
            id="path4591"
            style="stroke-linejoin:round;stroke-opacity:.37705;fill-opacity:.93989;stroke:#fffffe;stroke-linecap:round;stroke-width:11.724"
            inkscape:connector-curvature="0"
            d="m-89.636 162.04c5.5569-5.6533 6.914-7.3354 8.5556-10.604 2.6393-5.2557 3.6421-9.9642 3.3844-15.892-0.23427-5.3882-1.1771-7.9866-4.0465-11.152-2.4788-2.7346-3.3559-3.1515-5.1083-2.428-1.5943 0.65816-1.6391 0.79978-2.3624 7.4578-0.97519 8.9773-4.0188 20.078-9.5874 34.968-1.1534 3.0841-0.79182 4.3501 1.2459 4.3619 1.0548 0.006 2.6179-1.3187 7.9187-6.7115z"
        />
      </g
      >
      <g
          id="g4593"
          style="stroke-width:11.724;fill:#ffffff"
          transform="matrix(-.57766 -.32753 -1.2892 1.5283 342.58 31.79)"
        >
        <g
            id="g4595"
            style="stroke-width:11.724"
            transform="translate(53.677,-18.379)"
          >
          <path
              id="path4597"
              style="opacity:.1;stroke-width:11.724"
              inkscape:connector-curvature="0"
              d="m-140.97 130.12c-2.5103 2.2259-1.2305 7.3903-2.375 10.656-3.0561 20.468-10.74 39.84-18.781 58.875 12.291-10.511 27.434-20.839 31.094-37.594 2.1948-10.207 2.3639-23.538-7.1875-30.125-0.84944-0.52186-1.6485-1.8414-2.75-1.8125z"
          />
          <path
              id="path4599"
              style="opacity:.1;stroke-width:11.724"
              inkscape:connector-curvature="0"
              d="m-140.56 129c-4.5778 0.19748-2.254 7.1136-3.6875 10.062-2.843 22.148-11.981 43.325-20.156 63.5 9.9496-7.4921 19.802-15.426 27.625-25.188 7.7666-11.279 11.022-27.049 5.125-39.812-2.2563-3.308-5.3863-6.7956-8.9062-8.5625z"
          />
          <path
              id="path4601"
              style="opacity:.1;stroke-width:11.724"
              inkscape:connector-curvature="0"
              d="m-141.06 127.91c-5.2633 0.27828-2.7797 7.7103-4.2812 11-2.8048 22.679-12.515 43.691-20.5 64.812 4.4898 0.1237 7.7731-5.4263 11.469-7.5938 11.087-9.1503 22.776-19.489 25.719-34.312 2.1054-10.848 1.9274-24.405-8.0312-31.531-1.2322-0.8127-2.6682-2.6647-4.375-2.375z"
          />
          <path
              id="path4603"
              style="opacity:.1;stroke-width:11.724"
              inkscape:connector-curvature="0"
              d="m-141.25 126.81c-6.4731 0.49331-3.6705 9.3681-5.375 13.469-3.1282 22.032-12.404 42.522-20.344 63.094-0.116 3.2356 4.9197 0.97142 5.9375-0.34375 12.335-10.598 27.41-20.621 32.281-36.875 2.9473-10.168 4.0512-22.802-2.4375-31.812-2.7643-2.6639-5.8272-7.5823-10.062-7.5312z"
          />
          <path
              id="path4605"
              style="opacity:.1;stroke-width:11.724"
              inkscape:connector-curvature="0"
              d="m-141.44 125.72c-2.8579 0.0641-5.0723 2.169-5 5.0625-1.9146 19.068-7.6313 37.517-14.831 55.235-1.9836 6.0398-5.7219 11.6-6.8255 17.89 0.2879 3.3232 5.1658 2.3967 6.8438 0.59375 8.9754-7.0213 17.86-14.432 25.492-22.911 8.4266-10.631 12.096-24.721 9.6147-38.248-0.98886-7.5131-6.7293-13.782-13.107-17.465-0.69954-0.21019-1.4614-0.29342-2.1875-0.15625z"
          />
          <path
              id="path4607"
              style="opacity:.1;stroke-width:11.724"
              inkscape:connector-curvature="0"
              d="m-141.59 124.59c-3.0485 0.24727-5.7857 2.2446-5.8375 5.5115-1.5329 11.7-3.4873 23.439-7.35 34.707-3.9118 12.807-9.4924 24.961-14.197 37.414-1.2094 2.7938 1.3117 5.5018 4.166 5.0235 5.3866-1.2171 9.1159-6.1154 13.431-9.3239 9.1014-7.9063 18.98-15.802 23.364-27.399 4.3035-10.2 5.0764-22.139 1.4859-32.683-2.5342-5.5182-7.1735-10.325-12.594-13.094-0.80032-0.21197-1.6343-0.30137-2.4688-0.15625z"
          />
          <path
              id="path4609"
              style="opacity:.1;stroke-width:11.724"
              inkscape:connector-curvature="0"
              d="m-141.72 123.5c-5.679 0.0195-7.3509 5.7979-7.4568 10.458-2.2861 23.94-12.324 46.096-20.949 68.292-1.8673 5.5092 5.8766 7.9663 9.375 4.5938 10.396-8.1968 21.372-16.488 29.156-27.25 8.3654-12.575 11.381-29.735 5.2188-44-3.3452-5.0538-7.7812-10.894-14.031-12.156-0.43808 0.009-0.87915-0.0317-1.3125 0.0625z"
          />
          <path
              id="path4611"
              style="opacity:.1;stroke-width:11.724"
              inkscape:connector-curvature="0"
              d="m-141.28 122.34c-5.7382-0.12-9.0227 5.1934-8.8438 10.469-2.2278 24.251-12.307 46.682-21.094 69.156-2.0194 5.982 5.8866 9.6631 10.344 6.2812 10.612-7.9369 21.159-16.462 29.43-26.872 9.2236-13.174 12.598-31.354 6.0385-46.346-3.5728-5.2718-8.9154-12.527-15.875-12.688z"
          />
          <path
              id="path4613"
              style="opacity:.1;stroke-width:11.724"
              inkscape:connector-curvature="0"
              d="m-141.97 121.28c-5.9785 0.21295-9.3615 5.8394-9.25 11.375-2.2312 24.267-12.363 46.676-21.094 69.094-2.1149 6.3729 5.8054 11.086 11.094 7.9062 10.566-6.9134 19.863-15.784 28.625-24.875 11.01-13.719 15.368-33.779 8.1875-50.25-3.7286-5.6962-8.9109-12.253-16-13.312-0.52115 0.0135-1.0464-0.0399-1.5625 0.0625z"
          />
          <path
              id="path4615"
              style="opacity:.1;stroke-width:11.724"
              inkscape:connector-curvature="0"
              d="m-141.53 120.12c-5.9914 0.0946-10.565 5.095-10.625 11-2.1099 24.31-11.951 47.071-21 69.469-2.8267 6.5498 4.2561 13.056 10.656 10.75 10.268-4.9241 17.931-13.99 26.531-21.312 14.398-13.825 20.532-36.697 12.844-55.406-3.8023-6.2499-10.352-14.629-18.406-14.5z"
          />
        </g
        >
        <path
            id="path4617"
            style="stroke-linejoin:round;stroke-opacity:.37705;fill-opacity:.93989;stroke:#fffffe;stroke-linecap:round;stroke-width:11.724"
            inkscape:connector-curvature="0"
            d="m-89.636 162.04c5.5569-5.6533 6.914-7.3354 8.5556-10.604 2.6393-5.2557 3.6421-9.9642 3.3844-15.892-0.23427-5.3882-1.1771-7.9866-4.0465-11.152-2.4788-2.7346-3.3559-3.1515-5.1083-2.428-1.5943 0.65816-1.6391 0.79978-2.3624 7.4578-0.97519 8.9773-4.0188 20.078-9.5874 34.968-1.1534 3.0841-0.79182 4.3501 1.2459 4.3619 1.0548 0.006 2.6179-1.3187 7.9187-6.7115z"
        />
      </g
      >
      <g
          id="g4671"
          style="stroke-width:11.724;fill:#ffffff"
          transform="matrix(.43932 -.54044 1.9468 .92151 93.486 89.27)"
        >
        <g
            id="g4673"
            style="stroke-width:11.724"
            transform="translate(53.677,-18.379)"
          >
          <path
              id="path4675"
              style="opacity:.1;stroke-width:11.724"
              inkscape:connector-curvature="0"
              d="m-140.97 130.12c-2.5103 2.2259-1.2305 7.3903-2.375 10.656-3.0561 20.468-10.74 39.84-18.781 58.875 12.291-10.511 27.434-20.839 31.094-37.594 2.1948-10.207 2.3639-23.538-7.1875-30.125-0.84944-0.52186-1.6485-1.8414-2.75-1.8125z"
          />
          <path
              id="path4677"
              style="opacity:.1;stroke-width:11.724"
              inkscape:connector-curvature="0"
              d="m-140.56 129c-4.5778 0.19748-2.254 7.1136-3.6875 10.062-2.843 22.148-11.981 43.325-20.156 63.5 9.9496-7.4921 19.802-15.426 27.625-25.188 7.7666-11.279 11.022-27.049 5.125-39.812-2.2563-3.308-5.3863-6.7956-8.9062-8.5625z"
          />
          <path
              id="path4679"
              style="opacity:.1;stroke-width:11.724"
              inkscape:connector-curvature="0"
              d="m-141.06 127.91c-5.2633 0.27828-2.7797 7.7103-4.2812 11-2.8048 22.679-12.515 43.691-20.5 64.812 4.4898 0.1237 7.7731-5.4263 11.469-7.5938 11.087-9.1503 22.776-19.489 25.719-34.312 2.1054-10.848 1.9274-24.405-8.0312-31.531-1.2322-0.8127-2.6682-2.6647-4.375-2.375z"
          />
          <path
              id="path4681"
              style="opacity:.1;stroke-width:11.724"
              inkscape:connector-curvature="0"
              d="m-141.25 126.81c-6.4731 0.49331-3.6705 9.3681-5.375 13.469-3.1282 22.032-12.404 42.522-20.344 63.094-0.116 3.2356 4.9197 0.97142 5.9375-0.34375 12.335-10.598 27.41-20.621 32.281-36.875 2.9473-10.168 4.0512-22.802-2.4375-31.812-2.7643-2.6639-5.8272-7.5823-10.062-7.5312z"
          />
          <path
              id="path4683"
              style="opacity:.1;stroke-width:11.724"
              inkscape:connector-curvature="0"
              d="m-141.44 125.72c-2.8579 0.0641-5.0723 2.169-5 5.0625-1.9146 19.068-7.6313 37.517-14.831 55.235-1.9836 6.0398-5.7219 11.6-6.8255 17.89 0.2879 3.3232 5.1658 2.3967 6.8438 0.59375 8.9754-7.0213 17.86-14.432 25.492-22.911 8.4266-10.631 12.096-24.721 9.6147-38.248-0.98886-7.5131-6.7293-13.782-13.107-17.465-0.69954-0.21019-1.4614-0.29342-2.1875-0.15625z"
          />
          <path
              id="path4685"
              style="opacity:.1;stroke-width:11.724"
              inkscape:connector-curvature="0"
              d="m-141.59 124.59c-3.0485 0.24727-5.7857 2.2446-5.8375 5.5115-1.5329 11.7-3.4873 23.439-7.35 34.707-3.9118 12.807-9.4924 24.961-14.197 37.414-1.2094 2.7938 1.3117 5.5018 4.166 5.0235 5.3866-1.2171 9.1159-6.1154 13.431-9.3239 9.1014-7.9063 18.98-15.802 23.364-27.399 4.3035-10.2 5.0764-22.139 1.4859-32.683-2.5342-5.5182-7.1735-10.325-12.594-13.094-0.80032-0.21197-1.6343-0.30137-2.4688-0.15625z"
          />
          <path
              id="path4687"
              style="opacity:.1;stroke-width:11.724"
              inkscape:connector-curvature="0"
              d="m-141.72 123.5c-5.679 0.0195-7.3509 5.7979-7.4568 10.458-2.2861 23.94-12.324 46.096-20.949 68.292-1.8673 5.5092 5.8766 7.9663 9.375 4.5938 10.396-8.1968 21.372-16.488 29.156-27.25 8.3654-12.575 11.381-29.735 5.2188-44-3.3452-5.0538-7.7812-10.894-14.031-12.156-0.43808 0.009-0.87915-0.0317-1.3125 0.0625z"
          />
          <path
              id="path4689"
              style="opacity:.1;stroke-width:11.724"
              inkscape:connector-curvature="0"
              d="m-141.28 122.34c-5.7382-0.12-9.0227 5.1934-8.8438 10.469-2.2278 24.251-12.307 46.682-21.094 69.156-2.0194 5.982 5.8866 9.6631 10.344 6.2812 10.612-7.9369 21.159-16.462 29.43-26.872 9.2236-13.174 12.598-31.354 6.0385-46.346-3.5728-5.2718-8.9154-12.527-15.875-12.688z"
          />
          <path
              id="path4691"
              style="opacity:.1;stroke-width:11.724"
              inkscape:connector-curvature="0"
              d="m-141.97 121.28c-5.9785 0.21295-9.3615 5.8394-9.25 11.375-2.2312 24.267-12.363 46.676-21.094 69.094-2.1149 6.3729 5.8054 11.086 11.094 7.9062 10.566-6.9134 19.863-15.784 28.625-24.875 11.01-13.719 15.368-33.779 8.1875-50.25-3.7286-5.6962-8.9109-12.253-16-13.312-0.52115 0.0135-1.0464-0.0399-1.5625 0.0625z"
          />
          <path
              id="path4693"
              style="opacity:.1;stroke-width:11.724"
              inkscape:connector-curvature="0"
              d="m-141.53 120.12c-5.9914 0.0946-10.565 5.095-10.625 11-2.1099 24.31-11.951 47.071-21 69.469-2.8267 6.5498 4.2561 13.056 10.656 10.75 10.268-4.9241 17.931-13.99 26.531-21.312 14.398-13.825 20.532-36.697 12.844-55.406-3.8023-6.2499-10.352-14.629-18.406-14.5z"
          />
        </g
        >
        <path
            id="path4695"
            style="stroke-linejoin:round;stroke-opacity:.37705;fill-opacity:.93989;stroke:#fffffe;stroke-linecap:round;stroke-width:11.724"
            inkscape:connector-curvature="0"
            d="m-89.636 162.04c5.5569-5.6533 6.914-7.3354 8.5556-10.604 2.6393-5.2557 3.6421-9.9642 3.3844-15.892-0.23427-5.3882-1.1771-7.9866-4.0465-11.152-2.4788-2.7346-3.3559-3.1515-5.1083-2.428-1.5943 0.65816-1.6391 0.79978-2.3624 7.4578-0.97519 8.9773-4.0188 20.078-9.5874 34.968-1.1534 3.0841-0.79182 4.3501 1.2459 4.3619 1.0548 0.006 2.6179-1.3187 7.9187-6.7115z"
        />
      </g
      >
      <g
          id="g4722"
          style="stroke-width:20.889;fill:#ffffff"
          transform="matrix(-.54572 -.31506 .20765 -.66292 40.467 212.33)"
        >
        <g
            id="g4724"
            style="stroke-width:20.889"
            transform="translate(53.677,-18.379)"
          >
          <path
              id="path4726"
              style="opacity:.1;stroke-width:20.889"
              inkscape:connector-curvature="0"
              d="m-140.97 130.12c-2.5103 2.2259-1.2305 7.3903-2.375 10.656-3.0561 20.468-10.74 39.84-18.781 58.875 12.291-10.511 27.434-20.839 31.094-37.594 2.1948-10.207 2.3639-23.538-7.1875-30.125-0.84944-0.52186-1.6485-1.8414-2.75-1.8125z"
          />
          <path
              id="path4728"
              style="opacity:.1;stroke-width:20.889"
              inkscape:connector-curvature="0"
              d="m-140.56 129c-4.5778 0.19748-2.254 7.1136-3.6875 10.062-2.843 22.148-11.981 43.325-20.156 63.5 9.9496-7.4921 19.802-15.426 27.625-25.188 7.7666-11.279 11.022-27.049 5.125-39.812-2.2563-3.308-5.3863-6.7956-8.9062-8.5625z"
          />
          <path
              id="path4730"
              style="opacity:.1;stroke-width:20.889"
              inkscape:connector-curvature="0"
              d="m-141.06 127.91c-5.2633 0.27828-2.7797 7.7103-4.2812 11-2.8048 22.679-12.515 43.691-20.5 64.812 4.4898 0.1237 7.7731-5.4263 11.469-7.5938 11.087-9.1503 22.776-19.489 25.719-34.312 2.1054-10.848 1.9274-24.405-8.0312-31.531-1.2322-0.8127-2.6682-2.6647-4.375-2.375z"
          />
          <path
              id="path4732"
              style="opacity:.1;stroke-width:20.889"
              inkscape:connector-curvature="0"
              d="m-141.25 126.81c-6.4731 0.49331-3.6705 9.3681-5.375 13.469-3.1282 22.032-12.404 42.522-20.344 63.094-0.116 3.2356 4.9197 0.97142 5.9375-0.34375 12.335-10.598 27.41-20.621 32.281-36.875 2.9473-10.168 4.0512-22.802-2.4375-31.812-2.7643-2.6639-5.8272-7.5823-10.062-7.5312z"
          />
          <path
              id="path4734"
              style="opacity:.1;stroke-width:20.889"
              inkscape:connector-curvature="0"
              d="m-141.44 125.72c-2.8579 0.0641-5.0723 2.169-5 5.0625-1.9146 19.068-7.6313 37.517-14.831 55.235-1.9836 6.0398-5.7219 11.6-6.8255 17.89 0.2879 3.3232 5.1658 2.3967 6.8438 0.59375 8.9754-7.0213 17.86-14.432 25.492-22.911 8.4266-10.631 12.096-24.721 9.6147-38.248-0.98886-7.5131-6.7293-13.782-13.107-17.465-0.69954-0.21019-1.4614-0.29342-2.1875-0.15625z"
          />
          <path
              id="path4736"
              style="opacity:.1;stroke-width:20.889"
              inkscape:connector-curvature="0"
              d="m-141.59 124.59c-3.0485 0.24727-5.7857 2.2446-5.8375 5.5115-1.5329 11.7-3.4873 23.439-7.35 34.707-3.9118 12.807-9.4924 24.961-14.197 37.414-1.2094 2.7938 1.3117 5.5018 4.166 5.0235 5.3866-1.2171 9.1159-6.1154 13.431-9.3239 9.1014-7.9063 18.98-15.802 23.364-27.399 4.3035-10.2 5.0764-22.139 1.4859-32.683-2.5342-5.5182-7.1735-10.325-12.594-13.094-0.80032-0.21197-1.6343-0.30137-2.4688-0.15625z"
          />
          <path
              id="path4738"
              style="opacity:.1;stroke-width:20.889"
              inkscape:connector-curvature="0"
              d="m-141.72 123.5c-5.679 0.0195-7.3509 5.7979-7.4568 10.458-2.2861 23.94-12.324 46.096-20.949 68.292-1.8673 5.5092 5.8766 7.9663 9.375 4.5938 10.396-8.1968 21.372-16.488 29.156-27.25 8.3654-12.575 11.381-29.735 5.2188-44-3.3452-5.0538-7.7812-10.894-14.031-12.156-0.43808 0.009-0.87915-0.0317-1.3125 0.0625z"
          />
          <path
              id="path4740"
              style="opacity:.1;stroke-width:20.889"
              inkscape:connector-curvature="0"
              d="m-141.28 122.34c-5.7382-0.12-9.0227 5.1934-8.8438 10.469-2.2278 24.251-12.307 46.682-21.094 69.156-2.0194 5.982 5.8866 9.6631 10.344 6.2812 10.612-7.9369 21.159-16.462 29.43-26.872 9.2236-13.174 12.598-31.354 6.0385-46.346-3.5728-5.2718-8.9154-12.527-15.875-12.688z"
          />
          <path
              id="path4742"
              style="opacity:.1;stroke-width:20.889"
              inkscape:connector-curvature="0"
              d="m-141.97 121.28c-5.9785 0.21295-9.3615 5.8394-9.25 11.375-2.2312 24.267-12.363 46.676-21.094 69.094-2.1149 6.3729 5.8054 11.086 11.094 7.9062 10.566-6.9134 19.863-15.784 28.625-24.875 11.01-13.719 15.368-33.779 8.1875-50.25-3.7286-5.6962-8.9109-12.253-16-13.312-0.52115 0.0135-1.0464-0.0399-1.5625 0.0625z"
          />
          <path
              id="path4744"
              style="opacity:.1;stroke-width:20.889"
              inkscape:connector-curvature="0"
              d="m-141.53 120.12c-5.9914 0.0946-10.565 5.095-10.625 11-2.1099 24.31-11.951 47.071-21 69.469-2.8267 6.5498 4.2561 13.056 10.656 10.75 10.268-4.9241 17.931-13.99 26.531-21.312 14.398-13.825 20.532-36.697 12.844-55.406-3.8023-6.2499-10.352-14.629-18.406-14.5z"
          />
        </g
        >
        <path
            id="path4746"
            sodipodi:nodetypes="ssccsss"
            style="stroke-linejoin:round;stroke-opacity:.37705;fill-opacity:.93989;stroke:#fffffe;stroke-linecap:round;stroke-width:20.889"
            inkscape:connector-curvature="0"
            d="m-81.08 151.44c3.4807-4.8895 3.6421-9.9642 3.3844-15.892-0.23427-5.3882-1.1771-7.9866-4.0465-11.152-2.4788-2.7346-3.3559-3.1515-5.1083-2.428-1.5943 0.65816-0.99649 0.79106-2.3624 7.4578-3.8539 18.81-28.856 49.433-14.121 41.539 12.191-6.5309 17.283-12.543 22.254-19.525z"
        />
      </g
      >
      <g
          id="g4968"
          style="stroke-width:20.889;fill:#ffffff"
          transform="matrix(.54572 .35798 -.20765 .75321 508.79 188.32)"
        >
        <g
            id="g4970"
            style="stroke-width:20.889"
            transform="translate(53.677,-18.379)"
          >
          <path
              id="path4972"
              style="opacity:.1;stroke-width:20.889"
              inkscape:connector-curvature="0"
              d="m-140.97 130.12c-2.5103 2.2259-1.2305 7.3903-2.375 10.656-3.0561 20.468-10.74 39.84-18.781 58.875 12.291-10.511 27.434-20.839 31.094-37.594 2.1948-10.207 2.3639-23.538-7.1875-30.125-0.84944-0.52186-1.6485-1.8414-2.75-1.8125z"
          />
          <path
              id="path4974"
              style="opacity:.1;stroke-width:20.889"
              inkscape:connector-curvature="0"
              d="m-140.56 129c-4.5778 0.19748-2.254 7.1136-3.6875 10.062-2.843 22.148-11.981 43.325-20.156 63.5 9.9496-7.4921 19.802-15.426 27.625-25.188 7.7666-11.279 11.022-27.049 5.125-39.812-2.2563-3.308-5.3863-6.7956-8.9062-8.5625z"
          />
          <path
              id="path4976"
              style="opacity:.1;stroke-width:20.889"
              inkscape:connector-curvature="0"
              d="m-141.06 127.91c-5.2633 0.27828-2.7797 7.7103-4.2812 11-2.8048 22.679-12.515 43.691-20.5 64.812 4.4898 0.1237 7.7731-5.4263 11.469-7.5938 11.087-9.1503 22.776-19.489 25.719-34.312 2.1054-10.848 1.9274-24.405-8.0312-31.531-1.2322-0.8127-2.6682-2.6647-4.375-2.375z"
          />
          <path
              id="path4978"
              style="opacity:.1;stroke-width:20.889"
              inkscape:connector-curvature="0"
              d="m-141.25 126.81c-6.4731 0.49331-3.6705 9.3681-5.375 13.469-3.1282 22.032-12.404 42.522-20.344 63.094-0.116 3.2356 4.9197 0.97142 5.9375-0.34375 12.335-10.598 27.41-20.621 32.281-36.875 2.9473-10.168 4.0512-22.802-2.4375-31.812-2.7643-2.6639-5.8272-7.5823-10.062-7.5312z"
          />
          <path
              id="path4980"
              style="opacity:.1;stroke-width:20.889"
              inkscape:connector-curvature="0"
              d="m-141.44 125.72c-2.8579 0.0641-5.0723 2.169-5 5.0625-1.9146 19.068-7.6313 37.517-14.831 55.235-1.9836 6.0398-5.7219 11.6-6.8255 17.89 0.2879 3.3232 5.1658 2.3967 6.8438 0.59375 8.9754-7.0213 17.86-14.432 25.492-22.911 8.4266-10.631 12.096-24.721 9.6147-38.248-0.98886-7.5131-6.7293-13.782-13.107-17.465-0.69954-0.21019-1.4614-0.29342-2.1875-0.15625z"
          />
          <path
              id="path4982"
              style="opacity:.1;stroke-width:20.889"
              inkscape:connector-curvature="0"
              d="m-141.59 124.59c-3.0485 0.24727-5.7857 2.2446-5.8375 5.5115-1.5329 11.7-3.4873 23.439-7.35 34.707-3.9118 12.807-9.4924 24.961-14.197 37.414-1.2094 2.7938 1.3117 5.5018 4.166 5.0235 5.3866-1.2171 9.1159-6.1154 13.431-9.3239 9.1014-7.9063 18.98-15.802 23.364-27.399 4.3035-10.2 5.0764-22.139 1.4859-32.683-2.5342-5.5182-7.1735-10.325-12.594-13.094-0.80032-0.21197-1.6343-0.30137-2.4688-0.15625z"
          />
          <path
              id="path4984"
              style="opacity:.1;stroke-width:20.889"
              inkscape:connector-curvature="0"
              d="m-141.72 123.5c-5.679 0.0195-7.3509 5.7979-7.4568 10.458-2.2861 23.94-12.324 46.096-20.949 68.292-1.8673 5.5092 5.8766 7.9663 9.375 4.5938 10.396-8.1968 21.372-16.488 29.156-27.25 8.3654-12.575 11.381-29.735 5.2188-44-3.3452-5.0538-7.7812-10.894-14.031-12.156-0.43808 0.009-0.87915-0.0317-1.3125 0.0625z"
          />
          <path
              id="path4986"
              style="opacity:.1;stroke-width:20.889"
              inkscape:connector-curvature="0"
              d="m-141.28 122.34c-5.7382-0.12-9.0227 5.1934-8.8438 10.469-2.2278 24.251-12.307 46.682-21.094 69.156-2.0194 5.982 5.8866 9.6631 10.344 6.2812 10.612-7.9369 21.159-16.462 29.43-26.872 9.2236-13.174 12.598-31.354 6.0385-46.346-3.5728-5.2718-8.9154-12.527-15.875-12.688z"
          />
          <path
              id="path4988"
              style="opacity:.1;stroke-width:20.889"
              inkscape:connector-curvature="0"
              d="m-141.97 121.28c-5.9785 0.21295-9.3615 5.8394-9.25 11.375-2.2312 24.267-12.363 46.676-21.094 69.094-2.1149 6.3729 5.8054 11.086 11.094 7.9062 10.566-6.9134 19.863-15.784 28.625-24.875 11.01-13.719 15.368-33.779 8.1875-50.25-3.7286-5.6962-8.9109-12.253-16-13.312-0.52115 0.0135-1.0464-0.0399-1.5625 0.0625z"
          />
          <path
              id="path4990"
              style="opacity:.1;stroke-width:20.889"
              inkscape:connector-curvature="0"
              d="m-141.53 120.12c-5.9914 0.0946-10.565 5.095-10.625 11-2.1099 24.31-11.951 47.071-21 69.469-2.8267 6.5498 4.2561 13.056 10.656 10.75 10.268-4.9241 17.931-13.99 26.531-21.312 14.398-13.825 20.532-36.697 12.844-55.406-3.8023-6.2499-10.352-14.629-18.406-14.5z"
          />
        </g
        >
        <path
            id="path4992"
            sodipodi:nodetypes="ssccsss"
            style="stroke-linejoin:round;stroke-opacity:.37705;fill-opacity:.93989;stroke:#fffffe;stroke-linecap:round;stroke-width:20.889"
            inkscape:connector-curvature="0"
            d="m-81.08 151.44c3.4807-4.8895 3.6421-9.9642 3.3844-15.892-0.23427-5.3882-1.1771-7.9866-4.0465-11.152-2.4788-2.7346-3.3559-3.1515-5.1083-2.428-1.5943 0.65816-0.99649 0.79106-2.3624 7.4578-3.8539 18.81-28.856 49.433-14.121 41.539 12.191-6.5309 17.283-12.543 22.254-19.525z"
        />
      </g
      >
    </g>
  </g >

</svg>
